<?xml version="1.0" encoding="UTF-8" standalone="no"?>
<!-- Created with Inkscape (http://www.inkscape.org/) -->

<svg
   width="866.50366"
   height="158.74615"
   viewBox="0 0 866.50366 158.74615"
   version="1.1"
   id="svg1"
   xmlns="http://www.w3.org/2000/svg"
   xmlns:svg="http://www.w3.org/2000/svg">
  <defs
     id="defs1" />
  <g
     id="layer1"
     transform="matrix(1.2043198,0,0,1.2043198,-8.4242447,-43.175536)">
    <path
       id="path1"
       style="fill:#622d2d;fill-opacity:0.996078;stroke:#ff9797;stroke-width:13.3731;stroke-dasharray:none;stroke-opacity:0.996078"
       d="m 105.67969,42.537109 c -30.96844,4.39e-4 -56.073336,24.974169 -56.074221,55.78125 -1.98e-4,30.807841 25.105015,55.782761 56.074221,55.783201 3.63473,-0.0436 7.25659,-0.43869 10.81445,-1.17968 21.66867,2.48719 80.26618,9.20326 81.5625,7.88476 8.11394,-7.06646 9.20991,-14.14367 17.3457,-32.98633 C 231.98215,96.167954 129.05392,43.39723 105.67969,42.537109 Z" />
    <g
       id="path4"
       transform="matrix(0.89387332,0,0,0.88921589,11.818497,43.207345)"
       style="fill:#000000;stroke-width:16.8248;stroke-dasharray:none">
      <path
         style="color:#000000;fill:#000000;fill-opacity:0.996078;stroke-width:16.8248;stroke-dasharray:none"
         d="M 55.407759,88.519026 C 50.320698,84.900272 45.124186,81.454475 39.795228,78.199147 29.274407,71.780459 22.132288,60.735198 19.327045,48.854168 17.809982,43.140416 16.524908,37.304472 16.155416,31.39327 c 2.326957,-2.377871 7.210545,-0.530598 10.498366,-0.513945 3.02103,0.600221 0.03111,-0.312211 -0.734132,-0.158177 10.243366,2.258545 19.280871,8.217293 27.013184,15.142842 2.78232,2.513906 5.055086,5.510979 7.166876,8.591145 2.647944,0.244504 5.295889,0.489007 7.943833,0.733511 C 64.908797,51.084785 61.464546,47.187434 57.230879,44.17038 48.41974,37.444766 38.573628,31.390522 27.360861,29.976226 21.784348,29.048946 16.155798,27.909059 10.478052,28.13809 c -4.0404907,1.835848 0.337647,7.339078 0.110843,10.727411 1.998734,10.041256 4.922729,20.288138 11.561428,28.326752 2.618927,3.596926 5.47754,7.066377 9.305374,9.436523 5.293176,3.886672 11.287603,6.816608 16.121644,11.319026 2.610139,0.190408 5.220279,0.380816 7.830418,0.571224 z"
         id="path5" />
      <path
         style="color:#000000;fill:#622d2d;fill-opacity:0.996078;stroke:#ff9797;stroke-width:16.8248;stroke-dasharray:none;stroke-opacity:0.996078"
         d="m 11.355469,22.611328 c -2.7617662,0.07922 -5.069049,1.11135 -6.6021002,2.74407 -1.2667782,1.86641 -2.029783,10.172181 -1.2467131,12.749179 2.4441719,10.251683 4.1651684,15.391606 9.3410003,24.741126 2.810707,5.107204 6.50895,9.6944 10.342099,14.059447 6.757888,6.260287 15.556626,9.816375 22.161807,16.2511 l 29.716797,2.166016 v 0 L 82.525395,61.904207 C 78.692387,58.011628 74.583173,54.368439 70.935553,50.308508 65.340293,42.575589 57.172089,37.238504 49.193122,32.256001 42.11818,27.927443 34.11705,25.333162 25.906803,24.288278 21.099958,23.406189 16.234038,22.851008 11.355469,22.611328 Z"
         id="path6" />
    </g>
    <ellipse
       style="fill:#371a1a;fill-opacity:0.996078;stroke:#ff9797;stroke-width:15.0436;stroke-opacity:0.996078"
       id="path2"
       cx="86.930183"
       cy="119.90145"
       rx="34.202545"
       ry="34.024338" />
  </g>
  <text
     xml:space="preserve"
     style="font-weight:bold;font-size:85.3333px;line-height:normal;font-family:Rubik;-inkscape-font-specification:'Rubik Bold';text-decoration-color:#000000;fill:#ff9797;fill-opacity:0.996078;stroke:none;stroke-width:20.0013;stroke-opacity:0.996078"
     x="299.29303"
     y="84.705742"
     id="text1"><tspan
       id="tspan1"
       x="299.29303"
       y="84.705742">ProtoFaceKit</tspan></text>
  <text
     xml:space="preserve"
     style="font-weight:bold;font-size:67.723px;line-height:normal;font-family:Rubik;-inkscape-font-specification:'Rubik Bold';text-decoration-color:#000000;fill:#c17676;fill-opacity:0.996078;stroke:none;stroke-width:15.8736;stroke-opacity:0.996078"
     x="301.88055"
     y="150.61862"
     id="text1-1"><tspan
       id="tspan1-4"
       x="301.88055"
       y="150.61862"
       style="font-style:normal;font-variant:normal;font-weight:normal;font-stretch:normal;font-family:Rubik;-inkscape-font-specification:Rubik;fill:#c17676;fill-opacity:0.996078;stroke-width:15.8736">Controller</tspan></text>
</svg>
